<svg width="30" height="26" viewBox="0 0 30 26" fill="none" xmlns="http://www.w3.org/2000/svg">
<path d="M21.0056 8.96512C21.7512 8.96512 22.3556 8.44129 22.3556 7.79512C22.3556 7.14895 21.7512 6.62512 21.0056 6.62512C20.2601 6.62512 19.6556 7.14895 19.6556 7.79512C19.6556 8.44129 20.2601 8.96512 21.0056 8.96512Z" fill="#C2C2C2"/>
<path d="M15 7.99338C13.8575 7.99338 12.7406 8.28701 11.7906 8.83715C10.8406 9.38728 10.1001 10.1692 9.66289 11.0841C9.22565 11.9989 9.11125 13.0056 9.33415 13.9767C9.55705 14.9479 10.1072 15.84 10.9152 16.5402C11.7231 17.2404 12.7524 17.7172 13.873 17.9104C14.9936 18.1036 16.1552 18.0045 17.2107 17.6255C18.2663 17.2466 19.1685 16.6049 19.8033 15.7815C20.4381 14.9582 20.7769 13.9902 20.7769 13C20.7769 11.6722 20.1683 10.3987 19.0849 9.45978C18.0015 8.52086 16.5321 7.99338 15 7.99338ZM15 16.25C14.2583 16.25 13.5333 16.0594 12.9166 15.7023C12.3 15.3452 11.8193 14.8376 11.5355 14.2437C11.2516 13.6499 11.1774 12.9964 11.3221 12.366C11.4668 11.7355 11.8239 11.1564 12.3484 10.7019C12.8728 10.2474 13.541 9.93785 14.2684 9.81245C14.9959 9.68705 15.7499 9.75141 16.4351 9.99739C17.1203 10.2434 17.706 10.6599 18.118 11.1944C18.5301 11.7289 18.75 12.3572 18.75 13C18.75 13.862 18.3549 14.6886 17.6517 15.2981C16.9484 15.9076 15.9946 16.25 15 16.25Z" fill="#C2C2C2"/>
<path d="M15 5.00663C18.0037 5.00663 18.36 5.01637 19.5459 5.0635C20.2592 5.07084 20.9658 5.18434 21.6347 5.39906C22.12 5.56131 22.5607 5.80982 22.9286 6.12859C23.2964 6.44736 23.5831 6.82934 23.7703 7.24994C24.0181 7.82968 24.149 8.442 24.1575 9.06019C24.2119 10.088 24.2231 10.3967 24.2231 13.0008C24.2231 15.6049 24.2119 15.912 24.1575 16.9398C24.149 17.558 24.0181 18.1703 23.7703 18.7501C23.5831 19.1707 23.2964 19.5526 22.9286 19.8714C22.5607 20.1902 22.12 20.4387 21.6347 20.6009C20.9658 20.8157 20.2592 20.9292 19.5459 20.9365C18.36 20.9836 18.0037 20.9934 15 20.9934C11.9963 20.9934 11.64 20.9836 10.4541 20.9365C9.74077 20.9292 9.03425 20.8157 8.36531 20.6009C7.88 20.4387 7.43926 20.1902 7.07145 19.8714C6.70364 19.5526 6.4169 19.1707 6.22969 18.7501C5.98194 18.1703 5.85097 17.558 5.8425 16.9398C5.78812 15.912 5.77688 15.6032 5.77688 13C5.77688 10.3967 5.78812 10.088 5.8425 9.06019C5.85097 8.442 5.98194 7.82968 6.22969 7.24994C6.4169 6.82934 6.70364 6.44736 7.07145 6.12859C7.43926 5.80982 7.88 5.56131 8.36531 5.39906C9.03425 5.18434 9.74077 5.07084 10.4541 5.0635C11.64 5.01637 11.9963 5.00663 15 5.00663ZM15 3.25C11.9447 3.25 11.5613 3.26138 10.3612 3.3085C9.42823 3.32483 8.50515 3.47813 7.63125 3.76188C6.8838 4.01237 6.20499 4.39544 5.63833 4.88655C5.07167 5.37766 4.62965 5.96596 4.34063 6.61375C4.01312 7.37138 3.83623 8.17167 3.8175 8.98056C3.76313 10.0206 3.75 10.3513 3.75 13C3.75 15.6488 3.76313 15.9803 3.8175 17.0203C3.83634 17.8289 4.01322 18.6289 4.34063 19.3862C4.62965 20.034 5.07167 20.6223 5.63833 21.1134C6.20499 21.6046 6.8838 21.9876 7.63125 22.2381C8.50544 22.522 9.42885 22.6753 10.3622 22.6915C11.5622 22.7386 11.9447 22.75 15 22.75C18.0553 22.75 18.4388 22.7386 19.6388 22.6915C20.5721 22.6753 21.4955 22.522 22.3697 22.2381C23.1171 21.9876 23.7959 21.6046 24.3626 21.1134C24.9293 20.6223 25.3713 20.034 25.6603 19.3862C25.9875 18.6286 26.1641 17.8283 26.1825 17.0194C26.2369 15.9794 26.25 15.6488 26.25 13C26.25 10.3513 26.2369 10.0198 26.1825 8.97975C26.1637 8.17113 25.9868 7.37113 25.6594 6.61375C25.3703 5.96596 24.9283 5.37766 24.3617 4.88655C23.795 4.39544 23.1162 4.01237 22.3688 3.76188C21.4945 3.47831 20.5711 3.32529 19.6378 3.30931C18.4378 3.26056 18.0562 3.25 15 3.25Z" fill="#C2C2C2"/>
</svg>
