<svg width="120" height="37" viewBox="0 0 120 37" fill="none" xmlns="http://www.w3.org/2000/svg">
<path d="M13.4313 1.31645C13.4846 1.31645 13.5113 1.39645 13.5113 1.55645C13.5113 1.71645 13.4846 1.79645 13.4313 1.79645C12.5513 1.79645 11.9113 1.87645 11.5113 2.03645C11.1113 2.19645 10.8313 2.47645 10.6713 2.87645C10.5379 3.24978 10.4713 3.83645 10.4713 4.63645V27.4365C10.4713 30.0765 9.85792 32.1698 8.63126 33.7165C7.40459 35.2898 5.63125 36.0765 3.31125 36.0765C2.40459 36.0765 1.69792 35.9165 1.19125 35.5965C0.657921 35.3031 0.391254 34.8898 0.391254 34.3565C0.391254 33.9565 0.511254 33.6365 0.751255 33.3965C0.991255 33.1565 1.32459 33.0365 1.75125 33.0365C2.20459 33.0365 2.55125 33.1298 2.79125 33.3165C3.03125 33.5298 3.28459 33.8365 3.55125 34.2365C3.79125 34.6098 4.00459 34.8765 4.19125 35.0365C4.37792 35.1965 4.64459 35.2765 4.99125 35.2765C5.95125 35.2765 6.65792 34.7165 7.11125 33.5965C7.59125 32.5031 7.83125 30.7298 7.83125 28.2765V4.55645C7.83125 3.75645 7.73792 3.16979 7.55125 2.79645C7.36459 2.42312 6.99125 2.16978 6.43125 2.03645C5.89792 1.87645 5.05792 1.79645 3.91125 1.79645C3.85792 1.79645 3.83125 1.71645 3.83125 1.55645C3.83125 1.39645 3.85792 1.31645 3.91125 1.31645L6.23125 1.35645C7.45792 1.40978 8.41792 1.43645 9.11125 1.43645C9.80459 1.43645 10.6579 1.40978 11.6713 1.35645L13.4313 1.31645ZM19.0819 26.7565C18.5485 26.7565 18.1219 26.5965 17.8019 26.2765C17.4819 25.9565 17.3219 25.5431 17.3219 25.0365C17.3219 24.5298 17.4819 24.1298 17.8019 23.8365C18.1219 23.5165 18.5485 23.3565 19.0819 23.3565C19.6419 23.3565 20.0685 23.5031 20.3619 23.7965C20.6819 24.0898 20.8419 24.5031 20.8419 25.0365C20.8419 25.5698 20.6819 25.9965 20.3619 26.3165C20.0685 26.6098 19.6419 26.7565 19.0819 26.7565ZM52.3788 25.8365C52.4854 25.8365 52.5388 25.9165 52.5388 26.0765C52.5388 26.2365 52.4854 26.3165 52.3788 26.3165C51.8721 26.3165 51.0854 26.2898 50.0188 26.2365C48.9521 26.1831 48.1788 26.1565 47.6988 26.1565C47.1121 26.1565 46.3654 26.1831 45.4588 26.2365C44.6054 26.2898 43.9521 26.3165 43.4988 26.3165C43.3921 26.3165 43.3388 26.2365 43.3388 26.0765C43.3388 25.9165 43.3921 25.8365 43.4988 25.8365C44.4854 25.8365 45.2054 25.7431 45.6588 25.5565C46.1121 25.3698 46.3388 25.0498 46.3388 24.5965C46.3388 24.2231 46.1654 23.6498 45.8188 22.8765L41.2188 13.0765H33.6588L30.2188 21.2365C29.8454 22.1431 29.6588 22.8898 29.6588 23.4765C29.6588 25.0498 30.9654 25.8365 33.5788 25.8365C33.7121 25.8365 33.7788 25.9165 33.7788 26.0765C33.7788 26.2365 33.7121 26.3165 33.5788 26.3165C33.0988 26.3165 32.4054 26.2898 31.4988 26.2365C30.4854 26.1831 29.6054 26.1565 28.8588 26.1565C28.1654 26.1565 27.3654 26.1831 26.4588 26.2365C25.6588 26.2898 24.9921 26.3165 24.4588 26.3165C24.3254 26.3165 24.2588 26.2365 24.2588 26.0765C24.2588 25.9165 24.3254 25.8365 24.4588 25.8365C25.2054 25.8365 25.8321 25.7031 26.3388 25.4365C26.8721 25.1431 27.3654 24.6498 27.8188 23.9565C28.2988 23.2365 28.8188 22.2098 29.3788 20.8765L37.8188 0.956452C37.8721 0.876451 37.9654 0.836451 38.0988 0.836451C38.2321 0.836451 38.3121 0.876451 38.3388 0.956452L47.7788 20.8365C48.6854 22.8098 49.4588 24.1431 50.0988 24.8365C50.7388 25.5031 51.4988 25.8365 52.3788 25.8365ZM34.0188 12.2365H40.8188L37.2188 4.63645L34.0188 12.2365ZM56.4647 26.7565C55.9314 26.7565 55.5047 26.5965 55.1847 26.2765C54.8647 25.9565 54.7047 25.5431 54.7047 25.0365C54.7047 24.5298 54.8647 24.1298 55.1847 23.8365C55.5047 23.5165 55.9314 23.3565 56.4647 23.3565C57.0247 23.3565 57.4514 23.5031 57.7447 23.7965C58.0647 24.0898 58.2247 24.5031 58.2247 25.0365C58.2247 25.5698 58.0647 25.9965 57.7447 26.3165C57.4514 26.6098 57.0247 26.7565 56.4647 26.7565ZM92.8753 25.8365C92.9553 25.8365 92.9953 25.9165 92.9953 26.0765C92.9953 26.2365 92.9553 26.3165 92.8753 26.3165C92.0487 26.3165 91.3953 26.3031 90.9153 26.2765L88.1553 26.2365L85.5953 26.2765C85.1687 26.3031 84.5687 26.3165 83.7953 26.3165C83.742 26.3165 83.7153 26.2365 83.7153 26.0765C83.7153 25.9165 83.742 25.8365 83.7953 25.8365C84.702 25.8365 85.3687 25.7698 85.7953 25.6365C86.2487 25.4765 86.542 25.2098 86.6753 24.8365C86.8353 24.4631 86.8887 23.8765 86.8353 23.0765L86.1153 4.87645L76.9953 26.0365C76.942 26.1431 76.8353 26.1965 76.6753 26.1965C76.542 26.1965 76.422 26.1431 76.3153 26.0365L66.4753 5.11645L66.1153 21.9565C66.0887 23.3698 66.3287 24.3698 66.8353 24.9565C67.342 25.5431 68.2353 25.8365 69.5153 25.8365C69.5687 25.8365 69.5953 25.9165 69.5953 26.0765C69.5953 26.2365 69.5687 26.3165 69.5153 26.3165C68.7687 26.3165 68.1953 26.3031 67.7953 26.2765L65.6353 26.2365L63.5553 26.2765C63.182 26.3031 62.6487 26.3165 61.9553 26.3165C61.902 26.3165 61.8753 26.2365 61.8753 26.0765C61.8753 25.9165 61.902 25.8365 61.9553 25.8365C63.0753 25.8365 63.8753 25.5431 64.3553 24.9565C64.862 24.3431 65.1287 23.3431 65.1553 21.9565L65.5153 3.39645C64.7153 2.32978 63.622 1.79645 62.2353 1.79645C62.182 1.79645 62.1553 1.71645 62.1553 1.55645C62.1553 1.39645 62.182 1.31645 62.2353 1.31645L63.7153 1.35645C63.982 1.38312 64.3553 1.39645 64.8353 1.39645C65.3153 1.39645 65.7153 1.38312 66.0353 1.35645C66.382 1.32979 66.6487 1.31645 66.8353 1.31645C67.182 1.31645 67.462 1.44979 67.6753 1.71645C67.9153 1.95645 68.2487 2.51645 68.6753 3.39645L77.5953 22.1965L86.3153 2.31645C86.6087 1.64979 87.0087 1.31645 87.5153 1.31645C87.6487 1.31645 87.8353 1.32979 88.0753 1.35645C88.342 1.38312 88.6887 1.39645 89.1153 1.39645L90.9953 1.35645C91.2887 1.32979 91.7287 1.31645 92.3153 1.31645C92.3953 1.31645 92.4353 1.39645 92.4353 1.55645C92.4353 1.71645 92.3953 1.79645 92.3153 1.79645C90.982 1.79645 90.022 1.99645 89.4353 2.39645C88.8753 2.76978 88.6087 3.48978 88.6353 4.55645L89.4353 23.0765C89.462 23.9031 89.5553 24.5031 89.7153 24.8765C89.902 25.2498 90.222 25.5031 90.6753 25.6365C91.1287 25.7698 91.862 25.8365 92.8753 25.8365ZM97.7928 26.7565C97.2595 26.7565 96.8328 26.5965 96.5128 26.2765C96.1928 25.9565 96.0328 25.5431 96.0328 25.0365C96.0328 24.5298 96.1928 24.1298 96.5128 23.8365C96.8328 23.5165 97.2595 23.3565 97.7928 23.3565C98.3528 23.3565 98.7795 23.5031 99.0728 23.7965C99.3928 24.0898 99.5528 24.5031 99.5528 25.0365C99.5528 25.5698 99.3928 25.9965 99.0728 26.3165C98.7795 26.6098 98.3528 26.7565 97.7928 26.7565ZM107.523 5.99645C107.523 7.03645 107.777 7.94312 108.283 8.71645C108.79 9.48978 109.403 10.1431 110.123 10.6765C110.843 11.1831 111.857 11.8365 113.163 12.6365C114.55 13.4631 115.63 14.1565 116.403 14.7165C117.177 15.2765 117.83 15.9965 118.363 16.8765C118.923 17.7298 119.203 18.7565 119.203 19.9565C119.203 21.2365 118.883 22.3965 118.243 23.4365C117.603 24.4765 116.657 25.3031 115.403 25.9165C114.177 26.5031 112.697 26.7965 110.963 26.7965C108.91 26.7965 107.03 26.3298 105.323 25.3965C105.19 25.3165 105.097 25.2231 105.043 25.1165C105.017 25.0098 104.99 24.8498 104.963 24.6365L104.443 19.1965C104.417 19.0898 104.47 19.0231 104.603 18.9965C104.763 18.9698 104.857 19.0098 104.883 19.1165C105.31 21.0365 106.097 22.6898 107.243 24.0765C108.417 25.4631 109.963 26.1565 111.883 26.1565C113.217 26.1565 114.337 25.7965 115.243 25.0765C116.177 24.3298 116.643 23.1565 116.643 21.5565C116.643 20.3565 116.377 19.3165 115.843 18.4365C115.31 17.5565 114.657 16.8365 113.883 16.2765C113.137 15.6898 112.11 15.0098 110.803 14.2365C109.523 13.4631 108.51 12.7965 107.763 12.2365C107.043 11.6765 106.43 10.9698 105.923 10.1165C105.417 9.26312 105.163 8.26312 105.163 7.11645C105.163 5.78312 105.51 4.64978 106.203 3.71645C106.923 2.75645 107.843 2.04978 108.963 1.59645C110.11 1.11645 111.323 0.876451 112.603 0.876451C114.177 0.876451 115.737 1.19645 117.283 1.83645C117.683 1.96978 117.883 2.19645 117.883 2.51645L118.163 7.11645C118.163 7.22312 118.097 7.27645 117.963 7.27645C117.83 7.27645 117.75 7.22312 117.723 7.11645C117.51 5.72978 116.937 4.44978 116.003 3.27645C115.07 2.07645 113.723 1.47645 111.963 1.47645C110.47 1.47645 109.35 1.91645 108.603 2.79645C107.883 3.64978 107.523 4.71645 107.523 5.99645Z" fill="#001CB1"/>
<path d="M2.23125 17.0765H121.363V19.0765H2.23125V17.0765Z" fill="#001CB1"/>
</svg>
