<svg width="11" height="16" viewBox="0 0 11 16" fill="none" xmlns="http://www.w3.org/2000/svg">
<path d="M10.4881 3.2C11.2912 4.936 11.1083 6.984 10.2257 8.648C9.47819 10 8.40468 11.144 7.49021 12.4C7.09262 12.96 6.69502 13.56 6.4008 14.208C6.29743 14.424 6.22586 14.648 6.14634 14.872C6.06682 15.096 5.99525 15.32 5.92369 15.544C5.85212 15.752 5.76465 16 5.50224 16C5.19211 16 5.10464 15.648 5.04103 15.408C4.85018 14.824 4.65933 14.264 4.36511 13.728C4.03113 13.096 3.60968 12.512 3.18028 11.944L10.4881 3.2ZM3.21209 5.136L0.587956 8.272C1.07302 9.304 1.79665 10.184 2.48846 11.064C2.65545 11.264 2.82244 11.472 2.98148 11.688L6.29743 7.736L6.26562 7.744C5.10464 8.144 3.81643 7.552 3.35522 6.4C3.29161 6.264 3.24389 6.104 3.21209 5.944C3.16834 5.67915 3.16834 5.40885 3.21209 5.144V5.136ZM1.1923 2.096L1.18435 2.104C-0.10386 3.744 -0.326513 6.024 0.444822 7.952L3.61763 4.16L3.57787 4.12L1.1923 2.096ZM7.26756 0.288L4.70705 3.336L4.73885 3.328C5.80441 2.96 6.9972 3.424 7.53793 4.4C7.6572 4.624 7.75263 4.864 7.78443 5.104C7.83215 5.408 7.84805 5.624 7.79239 5.92V5.928L10.337 2.888C9.67184 1.67151 8.58053 0.747559 7.27551 0.296L7.26756 0.288ZM3.82438 3.912L6.93358 0.192L6.90177 0.184C6.44056 0.064 5.9714 0 5.50224 0C3.93571 0 2.45665 0.68 1.407 1.848L1.3911 1.856L3.82438 3.912Z" fill="#C2C2C2"/>
</svg>
