<svg width="23" height="22" viewBox="0 0 23 22" fill="none" xmlns="http://www.w3.org/2000/svg">
<path d="M19.6398 3.19826C18.5806 2.18032 17.3192 1.37329 15.9292 0.824201C14.5391 0.275112 13.0482 -0.00505664 11.5433 2.20529e-05C5.23738 2.20529e-05 0.0981918 4.89226 0.0924159 10.8982C0.0924159 12.8219 0.620919 14.6932 1.61872 16.3501L0 22L6.07057 20.4847C7.74994 21.355 9.63136 21.8111 11.5433 21.8116H11.5491C17.8565 21.8116 22.9942 16.9193 23 10.9079C23.0014 9.47518 22.7052 8.05638 22.1282 6.73321C21.5513 5.41004 20.7051 4.20865 19.6384 3.19826H19.6398ZM11.5433 19.9663C9.83795 19.9669 8.16393 19.5299 6.69726 18.7013L6.3507 18.5033L2.74937 19.4026L3.71107 16.0572L3.48581 15.7121C2.53249 14.2688 2.02831 12.5978 2.0317 10.8927C2.0317 5.907 6.30161 1.83977 11.5491 1.83977C12.7992 1.83763 14.0374 2.07114 15.1923 2.52684C16.3472 2.98254 17.396 3.65141 18.2781 4.49488C19.1633 5.33507 19.8651 6.33384 20.3429 7.43357C20.8208 8.5333 21.0652 9.71223 21.0621 10.9024C21.0564 15.906 16.7865 19.9663 11.5433 19.9663ZM16.7634 13.1821C16.4789 13.046 15.0739 12.3874 14.8096 12.2939C14.5468 12.2045 14.3548 12.1577 14.1671 12.43C13.975 12.7009 13.4263 13.3182 13.2617 13.4956C13.0971 13.6785 12.9267 13.6991 12.6408 13.5644C12.3563 13.4269 11.4336 13.1409 10.3419 12.21C9.48995 11.4881 8.91957 10.5944 8.74918 10.3235C8.58457 10.0512 8.7333 9.90549 8.87625 9.76937C9.00188 9.64837 9.16072 9.45037 9.30368 9.29362C9.44808 9.13687 9.49573 9.02137 9.58959 8.83987C9.68345 8.65562 9.63868 8.49887 9.56793 8.36275C9.49573 8.22662 8.92535 6.88325 8.6842 6.3415C8.45316 5.80663 8.21779 5.88088 8.04162 5.874C7.87701 5.86438 7.68496 5.86438 7.4929 5.86438C7.34787 5.86781 7.20515 5.89975 7.0737 5.9582C6.94225 6.01664 6.8249 6.10033 6.72903 6.204C6.46622 6.47625 5.73123 7.13487 5.73123 8.47824C5.73123 9.82162 6.75646 11.1127 6.90086 11.2956C7.04238 11.4785 8.9138 14.2271 11.7859 15.4096C12.4646 15.6915 12.9989 15.8578 13.4162 15.9843C14.1021 16.1933 14.7216 16.1617 15.2154 16.0943C15.7641 16.0146 16.9063 15.4343 17.1475 14.7977C17.3843 14.1597 17.3843 13.6152 17.3121 13.5011C17.2413 13.3856 17.0493 13.3182 16.7634 13.1821Z" fill="#C2C2C2"/>
</svg>
